
nColumns=19
nRows=63
DataType=double
version=3
OpenSimVersion=4.4-2022-10-11-798caa840
endheader
time	ground_force_calcn_r_vx	ground_force_calcn_r_vy	ground_force_calcn_r_vz	ground_force_calcn_r_px	ground_force_calcn_r_py	ground_force_calcn_r_pz	ground_force_calcn_r_mx	ground_force_calcn_r_my	ground_force_calcn_r_mz	ground_force_calcn_l_vx	ground_force_calcn_l_vy	ground_force_calcn_l_vz	ground_force_calcn_l_px	ground_force_calcn_l_py	ground_force_calcn_l_pz	ground_force_calcn_l_mx	ground_force_calcn_l_my	ground_force_calcn_l_mz
1.43	-126.23	207.461	5.10356	-0.08277519999999999	0	-0.390171	-0.276427	0.454311	0.0111761	0	0	0	0	0	0	0	0	0
1.44	-542.596	825.8819999999999	-18.0709	-0.0829579	0	-0.388194	-0.625231	0.951661	-0.020823	0	0	0	0	0	0	0	0	0
1.45	-516.01	893.3680000000001	-24.3189	-0.0855192	0	-0.387462	-0.0808022	0.139893	-0.00380811	0	0	0	0	0	0	0	0	0
1.46	-221.556	1201.02	-42.537	-0.160453	0	-0.381698	0.282304	-1.53032	0.0542	0	0	0	0	0	0	0	0	0
1.47	-19.9383	2426.2	-172.668	-0.222401	0	-0.376805	0.0484807	-5.89937	0.419847	0	0	0	0	0	0	0	0	0
1.48	98.4597	2469.66	-220.584	-0.231508	0	-0.374517	-0.300901	-7.54749	0.6741239999999999	-37.8728	44.6385	-4.63745	-0.090625	0	-0.894373	-0.151836	0.17896	-0.018592
1.49	-270.921	1419.3	-150.708	-0.189774	0	-0.370812	1.05462	-5.52491	0.586662	-189.453	246.229	17.7104	-0.117467	0	-0.894393	-0.317298	0.412387	0.0296615
1.5	-451.866	840.431	-83.4971	-0.123391	0	-0.368242	2.79024	-5.18959	0.515587	-221.486	299.273	58.0172	-0.120806	0	-0.892919	-0.487449	0.658644	0.127685
1.51	-392.573	710.378	-53.8482	-0.105868	0	-0.368125	4.18291	-7.56916	0.573758	-87.5069	198.627	8.90063	-0.123632	0	-0.879594	-0.239026	0.542551	0.0243122
1.52	-309.208	715.987	-48.7754	-0.112153	0	-0.368586	4.38598	-10.156	0.6918570000000001	-21.2857	208.617	-29.5732	-0.152019	0	-0.86172	-0.27069	2.65297	-0.376081
1.53	-274.117	768.178	-53.6315	-0.116699	0	-0.368094	4.17441	-11.6982	0.816729	-23.7226	413.869	-45.7414	-0.203132	0	-0.843073	-0.33351	5.81847	-0.6430670000000001
1.54	-241.61	837.784	-70.4776	-0.121868	0	-0.36678	3.30088	-11.4458	0.962866	3.81227	703.462	-53.4513	-0.231509	0	-0.8321499999999999	0.0335466	6.1902	-0.470351
1.55	-183.844	922.213	-94.88679999999999	-0.130349	0	-0.364602	2.01111	-10.0883	1.03799	45.9219	745.5170000000001	4.56661	-0.233843	0	-0.834903	0.19446	3.15695	0.0193377
1.56	-126.481	1011.63	-114.842	-0.1391	0	-0.362346	1.04791	-8.381500000000001	0.951482	5.07657	588.232	82.8959	-0.211196	0	-0.848789	-0.0138195	-1.60129	-0.22566
1.57	-86.0634	1059.16	-117.452	-0.14418	0	-0.360999	0.6159750000000001	-7.5806	0.840632	-79.5506	476.683	110.528	-0.180479	0	-0.86033	0.691777	-4.14527	-0.961159
1.58	-78.5444	1040.92	-102.157	-0.144023	0	-0.360555	0.639101	-8.469749999999999	0.8312310000000001	-138.133	433.458	106.142	-0.164495	0	-0.864692	0.848834	-2.66362	-0.652245
1.59	-91.2527	974.338	-80.48390000000001	-0.140017	0	-0.360351	0.946084	-10.1017	0.834436	-142.842	405.682	76.81189999999999	-0.161753	0	-0.865681	-0.171846	0.488056	0.0924087
1.6	-107.016	902.763	-64.9025	-0.134898	0	-0.359915	1.30171	-10.981	0.789458	-126.542	395.675	42.4431	-0.165477	0	-0.863463	-1.22667	3.83559	0.411435
1.61	-114.915	852.8099999999999	-58.7418	-0.131021	0	-0.359317	1.43247	-10.6307	0.732245	-118.959	419.464	21.1437	-0.172189	0	-0.8590680000000001	-1.88959	6.66289	0.335853
1.62	-106.957	828.203	-59.9095	-0.129375	0	-0.358622	1.22797	-9.508570000000001	0.687818	-109.696	447.34	13.7535	-0.177273	0	-0.855393	-1.97464	8.05259	0.247577
1.63	-94.11499999999999	830.876	-65.8357	-0.129069	0	-0.358007	0.933391	-8.240259999999999	0.652929	-89.5009	459.067	22.6178	-0.17915	0	-0.854279	-1.55514	7.9766	0.392999
1.64	-85.1561	855.035	-71.24509999999999	-0.129135	0	-0.357744	0.734981	-7.37979	0.614915	-70.182	470.86	44.2975	-0.179505	0	-0.854913	-1.01924	6.83819	0.643323
1.65	-75.6991	883.572	-71.1468	-0.129151	0	-0.358096	0.6134230000000001	-7.15997	0.576534	-58.1675	492.796	68.0089	-0.179888	0	-0.855962	-0.655566	5.55397	0.766481
1.66	-65.2784	907.4640000000001	-66.2677	-0.129088	0	-0.358799	0.545173	-7.5787	0.553435	-48.8338	517.116	82.7533	-0.181596	0	-0.855946	-0.473217	5.01103	0.801909
1.67	-57.7929	927.455	-59.952	-0.12887	0	-0.35968	0.52418	-8.411989999999999	0.543763	-40.2951	536.546	85.0613	-0.184708	0	-0.854637	-0.426399	5.67767	0.90011
1.68	-52.3458	942.365	-52.8322	-0.128462	0	-0.360649	0.523532	-9.424989999999999	0.528397	-38.1385	550.875	79.3767	-0.188001	0	-0.8526010000000001	-0.50757	7.33137	1.05639
1.69	-49.435	950.696	-45.442	-0.127776	0	-0.36166	0.535335	-10.2951	0.492094	-42.1513	559.4349999999999	69.0258	-0.190739	0	-0.850479	-0.713464	9.469150000000001	1.16835
1.7	-48.9009	954.158	-40.193	-0.126871	0	-0.362567	0.5547299999999999	-10.8239	0.455948	-48.3418	561.304	58.0634	-0.192613	0	-0.848732	-0.983403	11.4184	1.18117
1.71	-47.5118	955.636	-36.728	-0.12591	0	-0.363357	0.552967	-11.1222	0.42746	-54.6694	560.549	50.6618	-0.193308	0	-0.847742	-1.23925	12.7066	1.14841
1.72	-46.5594	956.707	-34.0889	-0.124776	0	-0.364015	0.549848	-11.2983	0.402576	-59.5322	563.099	47.4698	-0.19297	0	-0.847434	-1.4041	13.281	1.1196
1.73	-46.4762	953.538	-32.6863	-0.123328	0	-0.36457	0.551749	-11.3201	0.388041	-60.7329	572.482	47.6772	-0.192052	0	-0.84778	-1.44577	13.6282	1.13497
1.74	-45.2093	944.456	-32.2356	-0.121709	0	-0.365179	0.536225	-11.2021	0.382345	-57.5138	586.13	51.4519	-0.190966	0	-0.848473	-1.37288	13.9912	1.22818
1.75	-43.6417	935.634	-30.5231	-0.120135	0	-0.365801	0.519719	-11.1422	0.363492	-53.2726	599.668	58.1678	-0.190019	0	-0.8493810000000001	-1.26011	14.1845	1.3759
1.76	-42.2156	929.346	-26.989	-0.118813	0	-0.366349	0.5079360000000001	-11.1819	0.324731	-47.9306	610.1660000000001	64.68300000000001	-0.189301	0	-0.850247	-1.12357	14.3032	1.51627
1.77	-38.8399	923.876	-24.1362	-0.117802	0	-0.366712	0.466576	-11.0983	0.289943	-41.4239	615.855	69.0423	-0.188471	0	-0.851046	-0.9745	14.488	1.62423
1.78	-34.1278	920.701	-24.3835	-0.117004	0	-0.366635	0.394485	-10.6424	0.281851	-36.5083	616.841	72.0568	-0.187417	0	-0.8520990000000001	-0.872889	14.7483	1.72283
1.79	-29.4113	918.325	-27.5406	-0.116115	0	-0.366173	0.313741	-9.79612	0.293786	-34.7652	612.3390000000001	75.02460000000001	-0.185707	0	-0.853697	-0.851785	15.003	1.83818
1.8	-24.8702	912.456	-31.416	-0.114991	0	-0.365662	0.240092	-8.80866	0.303283	-35.6147	602.6420000000001	78.5202	-0.183146	0	-0.855712	-0.895105	15.1462	1.97345
1.81	-21.1854	900.801	-33.8065	-0.113755	0	-0.365203	0.186177	-7.91624	0.297092	-37.7073	589.071	82.5414	-0.180414	0	-0.857784	-0.970799	15.166	2.12508
1.82	-19.2407	884.309	-34.3358	-0.112413	0	-0.364811	0.155032	-7.12532	0.276661	-38.9225	573.153	85.92010000000001	-0.1778	0	-0.859826	-1.02865	15.1474	2.27072
1.83	-18.1156	863.833	-34.6413	-0.110888	0	-0.364579	0.130878	-6.24085	0.250269	-38.522	556.633	87.0046	-0.175353	0	-0.861637	-1.05027	15.1761	2.3721
1.84	-17.2618	841.05	-36.755	-0.10921	0	-0.364287	0.10504	-5.11786	0.223657	-37.6487	538.747	86.2595	-0.172692	0	-0.863175	-1.0563	15.1155	2.42017
1.85	-16.5198	816.0599999999999	-40.3822	-0.107509	0	-0.363878	0.07777489999999999	-3.842	0.190119	-36.8664	519.022	84.7677	-0.169025	0	-0.8650330000000001	-1.0362	14.5881	2.38255
1.86	-16.1073	788.4450000000001	-44.065	-0.105716	0	-0.363477	0.0533389	-2.61092	0.14592	-35.7426	498.542	83.5762	-0.163902	0	-0.867715	-0.966372	13.479	2.25964
1.87	-16.5413	759.023	-47.0267	-0.10385	0	-0.363218	0.0331343	-1.52042	0.0942003	-33.8229	477.088	81.85599999999999	-0.157863	0	-0.871004	-0.850446	11.9959	2.05819
1.88	-18.1355	729.472	-48.8602	-0.101979	0	-0.363036	0.0158013	-0.635583	0.0425714	-30.769	454.57	76.65049999999999	-0.151963	0	-0.873793	-0.722567	10.6749	1.80003
1.89	-19.7103	702.951	-50.0847	-0.10025	0	-0.363029	-0.00154316	0.0550353	-0.00392123	-27.4768	431.488	68.70740000000001	-0.147048	0	-0.875658	-0.610277	9.583629999999999	1.52604
1.9	-20.1591	680.404	-51.3451	-0.0986643	0	-0.363054	-0.0186916	0.630873	-0.0476074	-24.2217	407.036	61.4636	-0.142136	0	-0.877314	-0.492061	8.26887	1.24862
1.91	-19.5241	662.046	-52.8407	-0.0972864	0	-0.362927	-0.0327128	1.10926	-0.088535	-20.0581	386.37	54.2492	-0.13813	0	-0.8788010000000001	-0.370565	7.13803	1.00223
1.92	-18.0948	647.5410000000001	-54.2338	-0.09606149999999999	0	-0.362849	-0.0425526	1.52279	-0.127539	-15.1495	371.052	48.4755	-0.135293	0	-0.880012	-0.254163	6.22514	0.813272
1.93	-15.9222	636.349	-55.1297	-0.0950642	0	-0.36295	-0.0466444	1.8642	-0.161504	-11.434	357.973	45.7557	-0.132538	0	-0.88139	-0.168848	5.28628	0.675687
1.94	-14.199	627.163	-55.554	-0.09428010000000001	0	-0.363179	-0.0485874	2.14608	-0.1901	-8.19374	343.645	44.1522	-0.129694	0	-0.883127	-0.102327	4.2916	0.551393
1.95	-12.8254	618.294	-55.9768	-0.0936348	0	-0.363365	-0.0495559	2.38902	-0.216288	-4.29108	327.665	42.1816	-0.126894	0	-0.8849669999999999	-0.0426413	3.25608	0.419167
1.96	-10.9849	609.943	-56.8554	-0.0930472	0	-0.363468	-0.0473563	2.62948	-0.245105	-0.923759	312.353	40.7433	-0.124101	0	-0.886669	-0.00660028	2.23177	0.291112
1.97	-8.925230000000001	604.5940000000001	-58.042	-0.092566	0	-0.363592	-0.0425305	2.88101	-0.276582	0.937335	300.587	40.3452	-0.121647	0	-0.888431	0.00410721	1.31711	0.176784
1.98	-5.88421	602.461	-59.1696	-0.0923172	0	-0.363826	-0.0299134	3.06271	-0.300799	2.51056	293.163	40.7172	-0.119444	0	-0.8900940000000001	0.00436628	0.50986	0.070814
1.99	-2.5566	603.2619999999999	-58.9941	-0.09227490000000001	0	-0.364232	-0.0127766	3.01481	-0.294824	4.48059	287.473	40.8913	-0.117367	0	-0.891494	-0.00292777	-0.187845	-0.0267198
2	-1.22604	606.362	-56.9749	-0.0922991	0	-0.364926	-0.0055562	2.74792	-0.2582	6.66833	282.934	40.8666	-0.115828	0	-0.89274	-0.016	-0.678871	-0.0980553
2.01	-0.988273	609.3	-53.8648	-0.0920911	0	-0.365714	-0.00393752	2.4276	-0.214611	7.97937	281.292	42.1173	-0.114523	0	-0.893799	-0.0293756	-1.03556	-0.155052
2.02	-1.72549	611.436	-51.3142	-0.0915667	0	-0.366318	-0.00625929	2.21801	-0.186144	7.91486	283.57	44.7101	-0.11368	0	-0.894662	-0.0358634	-1.2849	-0.202589
2.03	-4.10508	611.919	-50.6495	-0.0908938	0	-0.36674	-0.015278	2.27739	-0.188504	8.654999999999999	291.113	47.5885	-0.113451	0	-0.895309	-0.0408055	-1.3725	-0.224364
2.04	-7.90456	610.934	-50.9599	-0.0901819	0	-0.367078	-0.0322744	2.49445	-0.208069	10.9175	301.489	49.6353	-0.113762	0	-0.895851	-0.047912	-1.3231	-0.217826
2.05	-11.951	610.168	-50.9024	-0.0895077	0	-0.367455	-0.0521301	2.66155	-0.222036	12.7867	309.352	49.9684	-0.113961	0	-0.8960669999999999	-0.0515442	-1.24702	-0.201426
